<svg width="24" height="24" viewBox="0 0 24 24" fill="none" xmlns="http://www.w3.org/2000/svg">
<path d="M11.75 2C6.36516 2 2 6.36516 2 11.75C2 17.1348 6.36516 21.5 11.75 21.5C17.1348 21.5 21.5 17.1348 21.5 11.75C21.5 6.36516 17.1348 2 11.75 2ZM15.4997 13.0002C15.4997 13.0002 16.362 13.8513 16.5742 14.2464C16.5803 14.2545 16.5834 14.2627 16.5854 14.2667C16.6717 14.412 16.692 14.5247 16.6494 14.609C16.5783 14.7491 16.3345 14.8182 16.2513 14.8243H14.7278C14.6222 14.8243 14.4008 14.7969 14.1327 14.612C13.9265 14.4678 13.7234 14.2312 13.5253 14.0006C13.2298 13.6573 12.9738 13.3608 12.7159 13.3608C12.6831 13.3607 12.6505 13.3659 12.6194 13.376C12.4244 13.439 12.1745 13.7173 12.1745 14.4587C12.1745 14.6902 11.9917 14.8233 11.8627 14.8233H11.165C10.9273 14.8233 9.6893 14.74 8.59242 13.5832C7.24977 12.1664 6.04117 9.32469 6.03102 9.29828C5.95484 9.11445 6.11227 9.01594 6.28391 9.01594H7.82258C8.02773 9.01594 8.09477 9.14086 8.14148 9.25156C8.19633 9.38055 8.39742 9.89344 8.7275 10.4703C9.26273 11.4108 9.59078 11.7927 9.85383 11.7927C9.90315 11.7921 9.9516 11.7795 9.995 11.7561C10.3383 11.5652 10.2743 10.3413 10.2591 10.0874C10.2591 10.0397 10.258 9.54 10.0823 9.30031C9.95641 9.12664 9.74211 9.06063 9.61211 9.03625C9.66473 8.96364 9.73405 8.90477 9.81422 8.86461C10.0498 8.7468 10.4744 8.72953 10.8959 8.72953H11.1305C11.5875 8.73563 11.7053 8.76508 11.8709 8.80672C12.206 8.88695 12.2131 9.10328 12.1837 9.84367C12.1745 10.0539 12.1654 10.2916 12.1654 10.5719C12.1654 10.6328 12.1623 10.6978 12.1623 10.7669C12.1522 11.1437 12.14 11.5712 12.4061 11.747C12.4408 11.7687 12.4809 11.7803 12.5219 11.7805C12.6143 11.7805 12.8926 11.7805 13.6462 10.4876C13.8786 10.0714 14.0805 9.639 14.2505 9.19367C14.2657 9.16727 14.3104 9.08602 14.3632 9.05453C14.4022 9.03466 14.4454 9.02455 14.4891 9.02508H16.298C16.495 9.02508 16.6301 9.05453 16.6555 9.1307C16.7002 9.25156 16.6473 9.62023 15.8216 10.7384L15.453 11.2249C14.7045 12.206 14.7045 12.2558 15.4997 13.0002Z" fill="#585CC6"/>
</svg>
